# xmcd
#
# Track frame offsets:
#	150
#	10368
#	26562
#	46065
#	56368
#	71436
#	86117
#	100328
#	114445
#	129335
#	144769
#	164207
#	176070
#
# Disc length: 2525 seconds
#
# Revision: 0
# Processed by: cddbd v1.5.1PL0 Copyright (c) Steve Scherf et al.
# Submitted via: dBpowerAMP V4.0
#
DISCID=aa09db0d
DTITLE=BEN and CARMEN STENEKER - COUNTRY DUETS LIKE FAHTER LIKE DAUGHTER
DYEAR=2005
DGENRE=Country
TTITLE0=GOTTA TRAVEL ON
TTITLE1=ALL THAT MATTERS
TTITLE2=CARRY MY LOVE
TTITLE3=TAKE ME BACK TO EL PASO
TTITLE4=UNDER FATHERS"S WINGS
TTITLE5=BABY BLUE
TTITLE6=ALL I CAN BE
TTITLE7=LET"S GO ON DOWN TO THE RIVER
TTITLE8=YOU BEAT ALL I"VE EVER SEEN
TTITLE9=LIKE FATHER, LIKE DAUGHTER
TTITLE10=JUANITA IS WAITING
TTITLE11=SOMEBODY
TTITLE12=GOLDEN FRAME[BONUS TRACK]
EXTD=BEN and CARMEN STENEKER COUNTRY DUETS\nLIKE FATHER,LIKE DAUGHTER
EXTT0=
EXTT1=
EXTT2=
EXTT3=
EXTT4=
EXTT5=
EXTT6=
EXTT7=
EXTT8=
EXTT9=
EXTT10=
EXTT11=
EXTT12=
PLAYORDER=
